PathFileType	4	(X/Y/Z)	 s05c0403.trc
DataRate	CameraRate	NumFrames	NumMarkers	Units	OrigDataRate	OrigDataStartFrame	OrigNumFrames
200	200	5	49	mm	200	1	2000
Frame#	Time	racr			lacr			c7			jug			rlel			rdr			llel			ldr			s2			lic			ric			lasi			rasi			rpsi			lpsi			rgt			lgt			rth1			rth2			rth3			rth4			rlfc			rsh1			rsh2			rsh3			rsh4			rlmal			rmmal			rcal			rtoe			rmt5			lth1			lth2			lth4			lth3			llfc			lmfc			lsh1			lsh2			lsh3			lsh4			llmal			lmmal			lcal			ltoe			lmt5			SBIKE			LBIKE			RBIKE			
		X1	Y1	Z1	X2	Y2	Z2	X3	Y3	Z3	X4	Y4	Z4	X5	Y5	Z5	X6	Y6	Z6	X7	Y7	Z7	X8	Y8	Z8	X9	Y9	Z9	X10	Y10	Z10	X11	Y11	Z11	X12	Y12	Z12	X13	Y13	Z13	X14	Y14	Z14	X15	Y15	Z15	X16	Y16	Z16	X17	Y17	Z17	X18	Y18	Z18	X19	Y19	Z19	X20	Y20	Z20	X21	Y21	Z21	X22	Y22	Z22	X23	Y23	Z23	X24	Y24	Z24	X25	Y25	Z25	X26	Y26	Z26	X27	Y27	Z27	X28	Y28	Z28	X29	Y29	Z29	X30	Y30	Z30	X31	Y31	Z31	X32	Y32	Z32	X33	Y33	Z33	X34	Y34	Z34	X35	Y35	Z35	X36	Y36	Z36	X37	Y37	Z37	X38	Y38	Z38	X39	Y39	Z39	X40	Y40	Z40	X41	Y41	Z41	X42	Y42	Z42	X43	Y43	Z43	X44	Y44	Z44	X45	Y45	Z45	X46	Y46	Z46	X47	Y47	Z47	X48	Y48	Z48	X49	Y49	Z49	
1	0.0050	400.818761	1395.181431	-121.043056	410.185120	1405.545465	-415.349445	394.616021	1474.020580	-271.725244	375.015670	1319.789089	-269.165237	497.128367	1156.333067	-22.990874	683.251618	964.787257	-54.168431	477.136253	1152.721314	-520.816000	762.742093	1029.795165	-451.956886	-106.076460	1154.622391	-267.538683	41.408534	1172.260536	-408.144245	39.190437	1193.137154	-128.269400	92.943110	1124.824545	-372.130836	84.172418	1134.763137	-153.633666	-77.310506	1200.356804	-227.432673	-72.810232	1202.189277	-314.215677	3.517977	1070.132085	-90.228528	-26.004840	1063.124744	-433.885047	106.446395	1025.395853	-70.776476	195.422321	1021.087951	-65.866292	268.960857	972.476515	-63.200214	206.349334	1054.651950	-77.370137	410.369947	907.956141	-83.772803	337.361069	822.565992	-68.247231	315.431147	738.179305	-83.634461	256.166925	675.863803	-92.827503	342.129804	727.056035	-108.929792	195.880745	559.986170	-110.070925	214.704305	592.487861	-185.775734	121.135788	535.444100	-158.949648	411.378898	482.104913	-145.644253	307.131481	469.771438	-83.331820	46.745754	940.280955	-456.176043	110.398330	883.449689	-458.666297	142.319177	899.703308	-445.955935	136.385509	796.287165	-461.488160	199.137703	661.037045	-434.939401	191.314369	649.929383	-326.817085	118.837606	559.260152	-458.020580	98.465473	474.616604	-445.251692	36.724388	411.250237	-442.637953	125.851044	461.307010	-422.895585	-12.458783	294.348652	-432.632984	17.748197	323.132798	-356.733112	-80.888534	264.466111	-387.978418	205.650072	199.295488	-396.124458	94.941746	190.347101	-458.413659	-165.061288	902.616807	-265.804901	-43.677707	85.063775	-474.653826	-51.599794	79.794144	-77.066286	
2	0.0100	400.841765	1395.132285	-121.022722	410.136325	1405.498680	-415.393447	394.557611	1474.027186	-271.710786	375.038606	1319.785546	-269.170456	497.125004	1156.286533	-22.991372	683.254496	964.774211	-54.082194	477.111647	1152.699023	-520.851186	762.496124	1029.850072	-451.865725	-106.064883	1154.620898	-267.478604	41.381381	1172.252649	-408.137302	39.175899	1193.131351	-128.230147	92.933738	1124.802822	-372.115875	84.169709	1134.753373	-153.586966	-77.308435	1200.337545	-227.399451	-72.814489	1202.215545	-314.199756	3.495041	1070.130518	-90.204755	-26.018769	1063.131411	-433.855002	106.422792	1025.362016	-70.753309	195.392676	1021.087366	-65.820633	268.964265	972.466947	-63.182169	206.329064	1054.657207	-77.299030	410.374145	907.985166	-83.754862	337.341765	822.571310	-68.235774	315.408599	738.190670	-83.614281	256.188944	675.856148	-92.826242	342.148915	727.064436	-108.894087	195.864203	559.977350	-110.052865	214.711713	592.484553	-185.775203	121.128189	535.466254	-158.955883	411.360247	482.117277	-145.648080	307.132611	469.778906	-83.331136	46.733856	940.293111	-456.185683	110.379688	883.480493	-458.661821	142.314459	899.716415	-445.951556	136.370519	796.325639	-461.488201	199.128324	661.034946	-434.929060	191.345391	649.956035	-326.822892	118.845549	559.266281	-458.011447	98.469259	474.652041	-445.286607	36.724715	411.273921	-442.635972	125.865949	461.348688	-422.890699	-12.442811	294.369883	-432.637932	17.730127	323.166134	-356.753594	-80.870571	264.488984	-387.978403	205.642476	199.280947	-396.136027	94.934779	190.365332	-458.412586	-168.408734	901.139252	-271.053965	-43.684884	85.074719	-474.674226	-51.569580	79.784556	-77.090922	
3	0.0150	400.871312	1395.099078	-121.019047	410.088353	1405.458699	-415.437651	394.532159	1474.019743	-271.721084	375.030574	1319.798110	-269.183725	497.122513	1156.262478	-22.983547	683.280479	964.774326	-53.988657	477.076774	1152.675878	-520.889316	762.298788	1029.921077	-451.732411	-106.078581	1154.623605	-267.448076	41.359255	1172.263044	-408.099243	39.187058	1193.123492	-128.217631	92.920041	1124.827186	-372.070254	84.171759	1134.732760	-153.566092	-77.322855	1200.338761	-227.359009	-72.834828	1202.220550	-314.166294	3.496077	1070.103963	-90.180530	-26.056958	1063.150116	-433.829632	106.424282	1025.345241	-70.725680	195.391857	1021.076553	-65.781853	268.950538	972.458196	-63.137208	206.318760	1054.651219	-77.251550	410.326197	907.956376	-83.705238	337.335769	822.568167	-68.194553	315.397195	738.187381	-83.587011	256.167848	675.857738	-92.805262	342.126656	727.073719	-108.877005	195.860619	559.968886	-110.054155	214.704612	592.491683	-185.763682	121.133108	535.470732	-158.955054	411.366661	482.118595	-145.640352	307.136186	469.779377	-83.328649	46.714552	940.298589	-456.172060	110.352970	883.491581	-458.662609	142.297823	899.715723	-445.930090	136.342575	796.336385	-461.485251	199.126759	661.051260	-434.935502	191.343357	649.969763	-326.821439	118.831449	559.285936	-458.020160	98.476984	474.666843	-445.259343	36.733662	411.280399	-442.634423	125.862274	461.371009	-422.900473	-12.442836	294.383147	-432.627602	17.703967	323.189397	-356.729977	-80.865139	264.513051	-387.979518	205.655613	199.279397	-396.135322	94.950474	190.364612	-458.400134	-164.948487	902.526533	-265.321666	-43.676497	85.087812	-474.676022	-51.578746	79.795418	-77.083379	
4	0.0200	400.896868	1395.071199	-121.028035	410.046374	1405.440657	-415.489676	394.504766	1474.022964	-271.783668	375.038411	1319.813617	-269.192289	497.132272	1156.233238	-22.955269	683.300642	964.769588	-53.864729	477.045941	1152.632508	-520.916632	763.439794	1032.247114	-451.620319	-106.097479	1154.643720	-267.388589	41.356645	1172.265011	-408.083902	39.176036	1193.250479	-129.223929	92.915067	1124.820656	-372.024237	84.175042	1134.721583	-153.558192	-77.341920	1200.352299	-227.316097	-72.803411	1202.422034	-314.184795	3.442546	1070.012777	-90.126650	-26.074476	1063.165278	-433.803665	106.378366	1025.339648	-70.692037	195.367668	1021.075298	-65.738847	268.707063	972.715287	-62.779805	206.290404	1054.628855	-77.223060	410.320141	907.954598	-83.685636	337.324066	822.552230	-68.161791	314.712472	737.669382	-84.153137	256.159458	675.846800	-92.786144	342.092544	727.054034	-108.857745	195.296823	560.705493	-109.453052	214.832300	592.383999	-185.735629	121.124552	535.462152	-158.947785	411.361108	482.126510	-145.628383	307.132311	469.787457	-83.326782	46.687225	940.321062	-456.151695	110.410359	883.142738	-458.346196	141.631215	900.630054	-446.891982	136.592332	796.402040	-460.992885	199.107338	661.080009	-434.936125	191.335967	649.997155	-326.807247	118.815212	559.316026	-458.012027	98.314390	475.099919	-445.275849	36.726871	411.297398	-442.624201	126.784819	462.797804	-422.585953	-12.503966	294.907995	-433.363038	17.778220	323.184733	-356.754625	-80.919325	264.518188	-387.977601	205.653695	199.266053	-396.125246	94.956790	190.365027	-458.412198	-167.937913	900.742066	-263.936472	-43.677738	85.048177	-474.648983	-51.595372	79.792269	-77.088885	
5	0.0250	400.902403	1395.356945	-120.806437	409.907401	1405.775443	-415.454151	394.417684	1474.097407	-271.747362	375.050449	1320.210113	-269.120604	497.069933	1156.434731	-22.799459	683.249595	964.853851	-53.688266	477.062096	1152.848800	-521.105039	763.687717	1032.132601	-451.913807	-106.433200	1154.944613	-267.241127	41.577778	1172.370424	-408.168191	39.083655	1193.289935	-129.217172	92.644131	1125.069240	-371.884279	84.150861	1134.698926	-153.514723	-77.339295	1200.484213	-227.280604	-72.917037	1202.487432	-314.198843	3.174687	1070.365141	-89.899005	-26.172206	1063.261508	-433.746355	106.277988	1025.581355	-70.614451	195.256481	1021.303329	-65.591334	268.695238	972.767981	-62.734503	206.391363	1054.703160	-77.314237	410.337650	907.930886	-83.838866	337.184784	822.796728	-68.049316	314.654784	737.983164	-83.992180	256.005636	676.052537	-92.645152	342.003337	727.377555	-108.698750	195.551831	560.516204	-109.670348	214.542314	592.640714	-185.743768	121.080127	535.454443	-158.877675	411.295168	482.249305	-145.566892	306.978174	470.017195	-83.135570	46.571915	940.409434	-455.968682	110.434753	883.173861	-458.314481	141.636736	900.667477	-446.880782	136.625374	796.436096	-460.983167	199.017626	661.242032	-435.009852	191.136176	650.275061	-326.629243	118.783777	559.456767	-458.016251	98.324841	475.102578	-445.257346	36.747482	411.267894	-442.613993	126.734539	462.800833	-422.500415	-12.445292	294.923179	-433.544774	17.729073	323.197834	-356.730164	-80.917255	264.474869	-387.992896	205.675433	199.278186	-396.127782	94.958976	190.337300	-458.427120	-164.802383	901.811598	-268.225001	-43.666894	84.925623	-474.822000	-51.801182	80.163549	-77.106654	
